<svg width="12" height="12" viewBox="0 0 12 12" fill="none" xmlns="http://www.w3.org/2000/svg">
<path d="M1.05011 1.05011C1.23764 0.86264 1.49195 0.757324 1.75711 0.757324C2.02227 0.757324 2.27658 0.86264 2.46411 1.05011L6.00011 4.58611L9.53611 1.05011C9.72471 0.867953 9.97731 0.767158 10.2395 0.769437C10.5017 0.771715 10.7525 0.876884 10.9379 1.06229C11.1233 1.2477 11.2285 1.49851 11.2308 1.76071C11.2331 2.02291 11.1323 2.27551 10.9501 2.46411L7.41411 6.00011L10.9501 9.53611C11.1323 9.72471 11.2331 9.97731 11.2308 10.2395C11.2285 10.5017 11.1233 10.7525 10.9379 10.9379C10.7525 11.1233 10.5017 11.2285 10.2395 11.2308C9.97731 11.2331 9.72471 11.1323 9.53611 10.9501L6.00011 7.41411L2.46411 10.9501C2.27551 11.1323 2.02291 11.2331 1.76071 11.2308C1.49851 11.2285 1.2477 11.1233 1.06229 10.9379C0.876884 10.7525 0.771715 10.5017 0.769437 10.2395C0.767158 9.97731 0.867953 9.72471 1.05011 9.53611L4.58611 6.00011L1.05011 2.46411C0.86264 2.27658 0.757324 2.02227 0.757324 1.75711C0.757324 1.49195 0.86264 1.23764 1.05011 1.05011Z" fill="black"/>
</svg>
