<svg width="14" height="14" viewBox="0 0 14 14" fill="none" xmlns="http://www.w3.org/2000/svg">
<path d="M7.00016 10.6668C8.5535 10.6668 9.86683 9.6935 10.4068 8.3335H3.5935C4.12683 9.6935 5.44683 10.6668 7.00016 10.6668ZM4.66683 6.3335C4.93205 6.3335 5.1864 6.22814 5.37394 6.0406C5.56147 5.85307 5.66683 5.59871 5.66683 5.3335C5.66683 5.06828 5.56147 4.81393 5.37394 4.62639C5.1864 4.43885 4.93205 4.3335 4.66683 4.3335C4.40161 4.3335 4.14726 4.43885 3.95972 4.62639C3.77219 4.81393 3.66683 5.06828 3.66683 5.3335C3.66683 5.59871 3.77219 5.85307 3.95972 6.0406C4.14726 6.22814 4.40161 6.3335 4.66683 6.3335ZM9.3335 6.3335C9.59871 6.3335 9.85307 6.22814 10.0406 6.0406C10.2281 5.85307 10.3335 5.59871 10.3335 5.3335C10.3335 5.06828 10.2281 4.81393 10.0406 4.62639C9.85307 4.43885 9.59871 4.3335 9.3335 4.3335C9.06828 4.3335 8.81392 4.43885 8.62639 4.62639C8.43885 4.81393 8.3335 5.06828 8.3335 5.3335C8.3335 5.59871 8.43885 5.85307 8.62639 6.0406C8.81392 6.22814 9.06828 6.3335 9.3335 6.3335ZM7.00016 12.3335C5.58567 12.3335 4.22912 11.7716 3.22893 10.7714C2.22873 9.7712 1.66683 8.41465 1.66683 7.00016C1.66683 5.58567 2.22873 4.22912 3.22893 3.22893C4.22912 2.22873 5.58567 1.66683 7.00016 1.66683C8.41465 1.66683 9.7712 2.22873 10.7714 3.22893C11.7716 4.22912 12.3335 5.58567 12.3335 7.00016C12.3335 8.41465 11.7716 9.7712 10.7714 10.7714C9.7712 11.7716 8.41465 12.3335 7.00016 12.3335ZM7.00016 0.333496C3.3135 0.333496 0.333496 3.3335 0.333496 7.00016C0.333496 8.76827 1.03587 10.464 2.28612 11.7142C2.90517 12.3333 3.6401 12.8243 4.44894 13.1594C5.25778 13.4944 6.12468 13.6668 7.00016 13.6668C8.76827 13.6668 10.464 12.9644 11.7142 11.7142C12.9644 10.464 13.6668 8.76827 13.6668 7.00016C13.6668 6.12468 13.4944 5.25778 13.1594 4.44894C12.8243 3.6401 12.3333 2.90517 11.7142 2.28612C11.0951 1.66706 10.3602 1.176 9.55138 0.840966C8.74255 0.505935 7.87564 0.333496 7.00016 0.333496Z" fill="#707070"/>
</svg>
