<svg width="14" height="14" viewBox="0 0 14 14" fill="none" xmlns="http://www.w3.org/2000/svg">
<path d="M6.99767 3.09998L6.99767 3.10008L7.00233 3.09998C7.51747 3.08797 8.02968 3.18059 8.508 3.37222C8.98631 3.56385 9.42078 3.85051 9.78514 4.21486C10.1495 4.57922 10.4362 5.01369 10.6278 5.49201C10.8194 5.97032 10.912 6.48254 10.9 6.99767L10.8999 6.99767L10.9 7.00233C10.912 7.51747 10.8194 8.02968 10.6278 8.508C10.4362 8.98631 10.1495 9.42078 9.78514 9.78514C9.42078 10.1495 8.98631 10.4362 8.508 10.6278C8.02968 10.8194 7.51747 10.912 7.00233 10.9L7.00233 10.8999L6.99767 10.9C6.48254 10.912 5.97032 10.8194 5.49201 10.6278C5.01369 10.4362 4.57922 10.1495 4.21486 9.78514C3.85051 9.42078 3.56385 8.98631 3.37222 8.508C3.18059 8.02968 3.08797 7.51747 3.09998 7.00233L3.10008 7.00233L3.09998 6.99767C3.08797 6.48254 3.18059 5.97032 3.37222 5.49201C3.56385 5.01369 3.85051 4.57922 4.21486 4.21486C4.57922 3.85051 5.01369 3.56385 5.49201 3.37222C5.97032 3.18059 6.48254 3.08797 6.99767 3.09998ZM3.61102 12.072C4.61402 12.7421 5.7932 13.0999 6.99949 13.1C7.80279 13.1081 8.59962 12.9559 9.34336 12.6522C10.0873 12.3485 10.7631 11.8994 11.3312 11.3312C11.8994 10.7631 12.3485 10.0873 12.6522 9.34336C12.9558 8.59964 13.1081 7.80282 13.1 6.99955C13.0999 5.79324 12.7422 4.61404 12.072 3.61102C11.4017 2.60788 10.449 1.82603 9.33437 1.36434C8.21974 0.902643 6.99324 0.781843 5.80995 1.01721C4.62667 1.25258 3.53975 1.83355 2.68665 2.68665C1.83355 3.53975 1.25258 4.62667 1.01721 5.80995C0.781843 6.99324 0.902643 8.21974 1.36434 9.33437C1.82603 10.449 2.60788 11.4017 3.61102 12.072Z" fill="#0285E5" stroke="#0285E5" stroke-width="0.2"/>
</svg>
