<svg width="21" height="14" viewBox="0 0 21 14" fill="none" xmlns="http://www.w3.org/2000/svg">
<path d="M16.2608 9.51016L16.1998 9.6034C16.3992 10.1013 16.5 10.6246 16.5 11.1668V12.8127C16.5 12.8196 16.5 12.8266 16.4999 12.8335C16.4994 12.8863 16.4972 12.9391 16.4932 12.9918C16.4931 12.9928 16.493 12.9937 16.493 12.9946C16.4754 13.2183 16.4246 13.4407 16.3333 13.655C16.3316 13.6589 16.33 13.6629 16.3282 13.6668H16.3333C16.5694 13.6668 16.7672 13.5868 16.9267 13.4268C17.0867 13.2674 17.1667 13.0696 17.1667 12.8335V11.1668C17.1667 10.4585 16.8647 9.90627 16.2608 9.51016ZM16.2608 9.51016L16.1998 9.60326C16.1753 9.54216 16.1493 9.48144 16.1219 9.42111C16.1685 9.45037 16.2148 9.48005 16.2608 9.51016ZM2.2873 10.0162C2.05279 10.1387 1.86599 10.3118 1.71727 10.5541L1.71707 10.5544C1.57206 10.7905 1.5 11.043 1.5 11.3335V12.6668H12.8333V11.3335C12.8333 11.043 12.7613 10.7905 12.6163 10.5544L12.6161 10.5541C12.4673 10.3118 12.2805 10.1387 12.046 10.0162C11.2512 9.61938 10.4494 9.32431 9.6399 9.12797L2.2873 10.0162ZM2.2873 10.0162C3.08217 9.61938 3.88397 9.32431 4.69343 9.12797L2.2873 10.0162ZM7.16667 8.8335C8.00412 8.8335 8.82779 8.93159 9.63933 9.12783H4.694C5.50555 8.93159 6.32921 8.8335 7.16667 8.8335ZM15.7125 10.3464C16.0412 10.562 16.1667 10.8034 16.1667 11.1668V12.6668L15.7125 10.3464ZM7.16667 6.00016C6.51732 6.00016 5.98634 5.78063 5.51961 5.31389C5.05287 4.84715 4.83333 4.31617 4.83333 3.66683C4.83333 3.01749 5.05287 2.48651 5.51961 2.01977C5.98634 1.55303 6.51732 1.3335 7.16667 1.3335C7.81601 1.3335 8.34699 1.55303 8.81373 2.01977C9.28046 2.48651 9.5 3.01749 9.5 3.66683C9.5 4.31617 9.28046 4.84715 8.81373 5.31389C8.34699 5.78063 7.81601 6.00016 7.16667 6.00016Z" fill="#016CBB" stroke="#016CBB" stroke-width="2"/>
</svg>
