<svg width="18" height="18" viewBox="0 0 18 18" fill="none" xmlns="http://www.w3.org/2000/svg">
<path d="M8.95817 14.0003C9.24984 14.0003 9.4965 13.8995 9.69817 13.6978C9.89928 13.4967 9.99984 13.2503 9.99984 12.9587C9.99984 12.667 9.89928 12.4206 9.69817 12.2195C9.4965 12.0178 9.24984 11.917 8.95817 11.917C8.6665 11.917 8.41984 12.0178 8.21817 12.2195C8.01706 12.4206 7.9165 12.667 7.9165 12.9587C7.9165 13.2503 8.01706 13.4967 8.21817 13.6978C8.41984 13.8995 8.6665 14.0003 8.95817 14.0003ZM9.08317 5.41699C9.47206 5.41699 9.78456 5.52449 10.0207 5.73949C10.2568 5.95505 10.3748 6.23644 10.3748 6.58366C10.3748 6.81977 10.2951 7.05921 10.1357 7.30199C9.97567 7.54533 9.74984 7.79894 9.45817 8.06283C9.0415 8.42394 8.73595 8.77116 8.5415 9.10449C8.34706 9.43783 8.24984 9.77116 8.24984 10.1045C8.24984 10.2989 8.32289 10.462 8.469 10.5937C8.61456 10.7259 8.78456 10.792 8.979 10.792C9.17345 10.792 9.34706 10.7225 9.49984 10.5837C9.65262 10.4448 9.74984 10.2712 9.7915 10.0628C9.83317 9.82671 9.92706 9.6081 10.0732 9.40699C10.2187 9.20533 10.4582 8.94477 10.7915 8.62533C11.2221 8.22255 11.5243 7.85449 11.6982 7.52116C11.8715 7.18783 11.9582 6.81977 11.9582 6.41699C11.9582 5.70866 11.6909 5.12866 11.1565 4.67699C10.6215 4.22588 9.93039 4.00033 9.08317 4.00033C8.49984 4.00033 7.98261 4.11144 7.5315 4.33366C7.07984 4.55588 6.729 4.89616 6.479 5.35449C6.38178 5.53505 6.34706 5.71199 6.37484 5.88533C6.40262 6.05921 6.49984 6.20171 6.6665 6.31283C6.84706 6.42394 7.04511 6.45866 7.26067 6.41699C7.47567 6.37533 7.65262 6.25727 7.7915 6.06283C7.94428 5.85449 8.12845 5.69477 8.344 5.58366C8.559 5.47255 8.80539 5.41699 9.08317 5.41699ZM8.99984 17.3337C7.86095 17.3337 6.78456 17.1148 5.77067 16.677C4.75678 16.2398 3.8715 15.6462 3.11484 14.8962C2.35762 14.1462 1.76039 13.2642 1.32317 12.2503C0.885393 11.2364 0.666504 10.1531 0.666504 9.00033C0.666504 7.84755 0.885393 6.76421 1.32317 5.75033C1.76039 4.73644 2.35762 3.85449 3.11484 3.10449C3.8715 2.35449 4.75678 1.7606 5.77067 1.32283C6.78456 0.885603 7.86095 0.666992 8.99984 0.666992C10.1665 0.666992 11.2568 0.885603 12.2707 1.32283C13.2846 1.7606 14.1665 2.35449 14.9165 3.10449C15.6665 3.85449 16.2568 4.73644 16.6873 5.75033C17.1179 6.76421 17.3332 7.84755 17.3332 9.00033C17.3332 10.1531 17.1179 11.2364 16.6873 12.2503C16.2568 13.2642 15.6665 14.1462 14.9165 14.8962C14.1665 15.6462 13.2846 16.2398 12.2707 16.677C11.2568 17.1148 10.1665 17.3337 8.99984 17.3337ZM8.99984 15.667C10.8609 15.667 12.4373 15.0178 13.729 13.7195C15.0207 12.4206 15.6665 10.8475 15.6665 9.00033C15.6665 7.1531 15.0207 5.58005 13.729 4.28116C12.4373 2.98283 10.8609 2.33366 8.99984 2.33366C7.18039 2.33366 5.61428 2.98283 4.3015 4.28116C2.98928 5.58005 2.33317 7.1531 2.33317 9.00033C2.33317 10.8475 2.98928 12.4206 4.3015 13.7195C5.61428 15.0178 7.18039 15.667 8.99984 15.667Z" fill="black"/>
</svg>
