<svg width="100" height="100" viewBox="0 0 100 100" fill="none" xmlns="http://www.w3.org/2000/svg">
<path fill-rule="evenodd" clip-rule="evenodd" d="M97 50C97 75.9574 75.9574 97 50 97C24.0426 97 3 75.9574 3 50C3 24.0426 24.0426 3 50 3C75.9574 3 97 24.0426 97 50ZM100 50C100 77.6142 77.6142 100 50 100C22.3858 100 0 77.6142 0 50C0 22.3858 22.3858 0 50 0C77.6142 0 100 22.3858 100 50ZM50.3937 89.7638C72.1372 89.7638 89.7638 72.1372 89.7638 50.3937C89.7638 28.6502 72.1372 11.0236 50.3937 11.0236C28.6502 11.0236 11.0236 28.6502 11.0236 50.3937C11.0236 72.1372 28.6502 89.7638 50.3937 89.7638Z" fill="#0285E5"/>
</svg>
