<svg width="12" height="13" viewBox="0 0 12 13" fill="none" xmlns="http://www.w3.org/2000/svg">
<path d="M5.99991 9.63711L3.92491 10.8871C3.83325 10.9454 3.73741 10.9704 3.63741 10.9621C3.53741 10.9538 3.44991 10.9204 3.37491 10.8621C3.29991 10.8038 3.24158 10.7309 3.19991 10.6436C3.15825 10.5559 3.14991 10.4579 3.17491 10.3496L3.72491 7.98711L1.88741 6.39961C1.80408 6.32461 1.75208 6.23911 1.73141 6.14311C1.71041 6.04744 1.71658 5.95378 1.74991 5.86211C1.78325 5.77044 1.83325 5.69544 1.89991 5.63711C1.96658 5.57878 2.05825 5.54128 2.17491 5.52461L4.59991 5.31211L5.53741 3.08711C5.57908 2.98711 5.64375 2.91211 5.73141 2.86211C5.81875 2.81211 5.90825 2.78711 5.99991 2.78711C6.09158 2.78711 6.18125 2.81211 6.26891 2.86211C6.35625 2.91211 6.42075 2.98711 6.46241 3.08711L7.39991 5.31211L9.82491 5.52461C9.94158 5.54128 10.0332 5.57878 10.0999 5.63711C10.1666 5.69544 10.2166 5.77044 10.2499 5.86211C10.2832 5.95378 10.2896 6.04744 10.2689 6.14311C10.2479 6.23911 10.1957 6.32461 10.1124 6.39961L8.27491 7.98711L8.82491 10.3496C8.84991 10.4579 8.84158 10.5559 8.79991 10.6436C8.75825 10.7309 8.69991 10.8038 8.62491 10.8621C8.54991 10.9204 8.46241 10.9538 8.36241 10.9621C8.26241 10.9704 8.16658 10.9454 8.07491 10.8871L5.99991 9.63711Z" fill="#333333"/>
</svg>
