<svg width="25" height="24" viewBox="0 0 25 24" fill="none" xmlns="http://www.w3.org/2000/svg">
<path d="M12.5798 2.43891C15.7199 2.43891 16.0918 2.45086 17.3318 2.50743C18.4784 2.55976 19.1011 2.75134 19.5155 2.91235C20.0644 3.12568 20.4562 3.38056 20.8677 3.79206C21.2792 4.20355 21.5341 4.59535 21.7473 5.14423C21.9084 5.55866 22.1 6.18135 22.1523 7.32789C22.2089 8.56798 22.2208 8.93989 22.2208 12.08C22.2208 15.22 22.2089 15.5919 22.1523 16.832C22.1 17.9786 21.9084 18.6012 21.7473 19.0157C21.5341 19.5646 21.2792 19.9564 20.8677 20.3678C20.4562 20.7793 20.0644 21.0342 19.5155 21.2475C19.1011 21.4086 18.4784 21.6001 17.3318 21.6525C16.0919 21.7091 15.72 21.721 12.5798 21.721C9.43953 21.721 9.06762 21.7091 7.82777 21.6525C6.68118 21.6001 6.0585 21.4086 5.64411 21.2475C5.09518 21.0342 4.70338 20.7793 4.29189 20.3678C3.88039 19.9564 3.62551 19.5646 3.41223 19.0157C3.25117 18.6012 3.05959 17.9786 3.00726 16.832C2.95069 15.5919 2.93874 15.22 2.93874 12.08C2.93874 8.93989 2.95069 8.56798 3.00726 7.32793C3.05959 6.18135 3.25117 5.55866 3.41223 5.14423C3.62551 4.59535 3.88039 4.20355 4.29189 3.79206C4.70338 3.38056 5.09518 3.12568 5.64411 2.91235C6.0585 2.75134 6.68118 2.55976 7.82772 2.50743C9.06781 2.45086 9.43972 2.43891 12.5798 2.43891ZM12.5798 0.319946C9.38594 0.319946 8.98551 0.333484 7.73118 0.390715C6.47942 0.447853 5.62459 0.646622 4.87653 0.937354C4.1032 1.23789 3.44738 1.64 2.7936 2.29377C2.13983 2.94754 1.73772 3.60337 1.43718 4.37669C1.14645 5.12476 0.947684 5.97959 0.890546 7.23135C0.833315 8.48563 0.819824 8.88611 0.819824 12.08C0.819824 15.2738 0.833315 15.6743 0.890546 16.9286C0.947684 18.1803 1.14645 19.0351 1.43718 19.7832C1.73772 20.5565 2.13983 21.2124 2.7936 21.8661C3.44738 22.5199 4.1032 22.922 4.87653 23.2226C5.62459 23.5133 6.47942 23.7121 7.73118 23.7692C8.98551 23.8264 9.38594 23.8399 12.5798 23.8399C15.7736 23.8399 16.1741 23.8264 17.4284 23.7692C18.6801 23.7121 19.535 23.5133 20.283 23.2226C21.0564 22.922 21.7122 22.5199 22.366 21.8661C23.0197 21.2124 23.4219 20.5565 23.7224 19.7832C24.0131 19.0351 24.2119 18.1803 24.269 16.9286C24.3263 15.6743 24.3398 15.2738 24.3398 12.08C24.3398 8.88611 24.3263 8.48563 24.269 7.23135C24.2119 5.97959 24.0131 5.12476 23.7224 4.37669C23.4219 3.60337 23.0197 2.94754 22.366 2.29377C21.7122 1.64 21.0564 1.23789 20.283 0.937354C19.535 0.646622 18.6801 0.447853 17.4284 0.390715C16.1741 0.333484 15.7736 0.319946 12.5798 0.319946ZM12.5798 6.04102C9.24459 6.04102 6.54085 8.74476 6.54085 12.08C6.54085 15.4151 9.24459 18.1189 12.5798 18.1189C15.915 18.1189 18.6187 15.4151 18.6187 12.08C18.6187 8.74476 15.915 6.04102 12.5798 6.04102ZM12.5798 16C10.4148 16 8.65977 14.2449 8.65977 12.08C8.65977 9.91501 10.4148 8.15994 12.5798 8.15994C14.7447 8.15994 16.4998 9.91501 16.4998 12.08C16.4998 14.2449 14.7447 16 12.5798 16ZM20.2685 5.80243C20.2685 6.58183 19.6367 7.21366 18.8573 7.21366C18.0779 7.21366 17.4461 6.58183 17.4461 5.80243C17.4461 5.02304 18.0779 4.39126 18.8573 4.39126C19.6367 4.39126 20.2685 5.02304 20.2685 5.80243Z" fill="#0A0A08"/>
</svg>
