<svg width="14" height="19" viewBox="0 0 14 19" fill="none" xmlns="http://www.w3.org/2000/svg">
<path d="M2.00016 18.333C1.54183 18.333 1.14961 18.17 0.823496 17.8438C0.496829 17.5172 0.333496 17.1247 0.333496 16.6663V8.33301C0.333496 7.87467 0.496829 7.48217 0.823496 7.15551C1.14961 6.8294 1.54183 6.66634 2.00016 6.66634H2.8335V4.99967C2.8335 3.8469 3.23989 2.86412 4.05266 2.05134C4.86489 1.23912 5.84739 0.833008 7.00016 0.833008C8.15294 0.833008 9.13572 1.23912 9.9485 2.05134C10.7607 2.86412 11.1668 3.8469 11.1668 4.99967V6.66634H12.0002C12.4585 6.66634 12.851 6.8294 13.1777 7.15551C13.5038 7.48217 13.6668 7.87467 13.6668 8.33301V16.6663C13.6668 17.1247 13.5038 17.5172 13.1777 17.8438C12.851 18.17 12.4585 18.333 12.0002 18.333H2.00016ZM2.00016 16.6663H12.0002V8.33301H2.00016V16.6663ZM7.00016 14.1663C7.4585 14.1663 7.851 14.0033 8.17766 13.6772C8.50377 13.3505 8.66683 12.958 8.66683 12.4997C8.66683 12.0413 8.50377 11.6488 8.17766 11.3222C7.851 10.9961 7.4585 10.833 7.00016 10.833C6.54183 10.833 6.14961 10.9961 5.8235 11.3222C5.49683 11.6488 5.3335 12.0413 5.3335 12.4997C5.3335 12.958 5.49683 13.3505 5.8235 13.6772C6.14961 14.0033 6.54183 14.1663 7.00016 14.1663ZM4.50016 6.66634H9.50016V4.99967C9.50016 4.30523 9.25711 3.71495 8.771 3.22884C8.28489 2.74273 7.69461 2.49967 7.00016 2.49967C6.30572 2.49967 5.71544 2.74273 5.22933 3.22884C4.74322 3.71495 4.50016 4.30523 4.50016 4.99967V6.66634ZM2.00016 16.6663V8.33301V16.6663Z" fill="black"/>
</svg>
