<svg width="214" height="46" viewBox="0 0 214 46" fill="none" xmlns="http://www.w3.org/2000/svg">
<path d="M132.306 35.8116C129.65 35.8116 127.65 35.0596 126.306 33.5556C124.962 32.0196 124.29 29.7796 124.29 26.8356V4.13156C124.29 3.13956 124.546 2.38756 125.058 1.87556C125.57 1.36356 126.306 1.10756 127.266 1.10756C128.226 1.10756 128.962 1.36356 129.474 1.87556C130.018 2.38756 130.29 3.13956 130.29 4.13156V26.5476C130.29 28.0196 130.594 29.1076 131.202 29.8116C131.842 30.5156 132.738 30.8676 133.89 30.8676H134.61L135.282 30.7716C135.73 30.7076 136.034 30.8356 136.194 31.1556C136.354 31.4436 136.434 32.0516 136.434 32.9796C136.434 33.7796 136.274 34.4036 135.954 34.8516C135.634 35.2996 135.106 35.5716 134.37 35.6676C134.05 35.6996 133.714 35.7316 133.362 35.7636C133.01 35.7956 132.658 35.8116 132.306 35.8116Z" fill="#1FAB81"/>
<path fill-rule="evenodd" clip-rule="evenodd" d="M107.208 35.8116C105.512 35.8116 103.992 35.4916 102.648 34.8516C101.336 34.1796 100.296 33.2836 99.5283 32.1636C98.7923 31.0436 98.4243 29.7796 98.4243 28.3716C98.4243 26.6436 98.8723 25.2836 99.7683 24.2916C100.664 23.2676 102.12 22.5316 104.136 22.0836C106.152 21.6356 108.856 21.4116 112.248 21.4116H113.928V20.4036C113.928 18.8036 113.576 17.6516 112.872 16.9476C112.168 16.2436 110.984 15.8916 109.32 15.8916C108.392 15.8916 107.384 16.0036 106.296 16.2276C105.24 16.4516 104.12 16.8356 102.936 17.3796C102.328 17.6676 101.784 17.7476 101.304 17.6196C100.856 17.4916 100.504 17.2356 100.248 16.8516C99.9923 16.4356 99.8643 15.9876 99.8643 15.5076C99.8643 15.0276 99.9923 14.5636 100.248 14.1156C100.504 13.6356 100.936 13.2836 101.544 13.0596C103.016 12.4516 104.424 12.0196 105.768 11.7636C107.144 11.5076 108.392 11.3796 109.512 11.3796C111.816 11.3796 113.704 11.7316 115.176 12.4356C116.68 13.1396 117.8 14.2116 118.536 15.6516C119.272 17.0596 119.64 18.8836 119.64 21.1236V32.6436C119.64 33.6356 119.4 34.4036 118.92 34.9476C118.44 35.4596 117.752 35.7156 116.856 35.7156C115.96 35.7156 115.256 35.4596 114.744 34.9476C114.264 34.4036 114.024 33.6356 114.024 32.6436V31.6335C113.783 32.2289 113.463 32.7736 113.064 33.2676C112.424 34.0676 111.608 34.6916 110.616 35.1396C109.624 35.5876 108.488 35.8116 107.208 35.8116ZM113.208 28.8996C113.688 28.0356 113.928 27.0436 113.928 25.9236V24.8676H112.296C110.312 24.8676 108.728 24.9636 107.544 25.1556C106.36 25.3476 105.512 25.6836 105 26.1636C104.52 26.6116 104.28 27.2516 104.28 28.0836C104.28 29.1396 104.648 30.0036 105.384 30.6756C106.12 31.3476 107.144 31.6836 108.456 31.6836C109.512 31.6836 110.44 31.4436 111.24 30.9636C112.072 30.4516 112.728 29.7636 113.208 28.8996Z" fill="#1FAB81"/>
<path fill-rule="evenodd" clip-rule="evenodd" d="M142.312 34.3236C144.104 35.3156 146.216 35.8116 148.648 35.8116C150.472 35.8116 152.12 35.5396 153.592 34.9956C155.064 34.4196 156.328 33.6036 157.384 32.5476C158.44 31.4596 159.24 30.1636 159.784 28.6596C160.36 27.1556 160.648 25.4596 160.648 23.5716C160.648 21.0756 160.152 18.9156 159.16 17.0916C158.168 15.2676 156.776 13.8596 154.984 12.8676C153.192 11.8756 151.08 11.3796 148.648 11.3796C146.824 11.3796 145.176 11.6676 143.704 12.2436C142.232 12.7876 140.968 13.6036 139.912 14.6916C138.856 15.7476 138.04 17.0276 137.464 18.5316C136.92 20.0036 136.648 21.6836 136.648 23.5716C136.648 26.0676 137.144 28.2436 138.136 30.0996C139.128 31.9236 140.52 33.3316 142.312 34.3236ZM151.768 30.3876C150.872 30.9636 149.832 31.2516 148.648 31.2516C146.856 31.2516 145.416 30.6116 144.328 29.3316C143.24 28.0196 142.696 26.0996 142.696 23.5716C142.696 21.8756 142.936 20.4676 143.416 19.3476C143.928 18.1956 144.632 17.3476 145.528 16.8036C146.424 16.2276 147.464 15.9396 148.648 15.9396C150.44 15.9396 151.88 16.5796 152.968 17.8596C154.056 19.1076 154.6 21.0116 154.6 23.5716C154.6 25.2676 154.344 26.6916 153.832 27.8436C153.352 28.9636 152.664 29.8116 151.768 30.3876Z" fill="#1FAB81"/>
<path d="M167.136 35.7156C166.176 35.7156 165.44 35.4596 164.928 34.9476C164.416 34.4036 164.16 33.6356 164.16 32.6436V14.4996C164.16 13.5076 164.416 12.7556 164.928 12.2436C165.44 11.7316 166.16 11.4756 167.088 11.4756C168.016 11.4756 168.736 11.7316 169.248 12.2436C169.76 12.7556 170.016 13.5076 170.016 14.4996V15.4915C170.696 14.3176 171.608 13.395 172.752 12.7236C174.256 11.8276 175.952 11.3796 177.84 11.3796C179.728 11.3796 181.28 11.7316 182.496 12.4356C183.712 13.1396 184.624 14.2116 185.232 15.6516C185.84 17.0596 186.144 18.8516 186.144 21.0276V32.6436C186.144 33.6356 185.888 34.4036 185.376 34.9476C184.864 35.4596 184.128 35.7156 183.168 35.7156C182.208 35.7156 181.456 35.4596 180.912 34.9476C180.4 34.4036 180.144 33.6356 180.144 32.6436V21.3156C180.144 19.4916 179.792 18.1636 179.088 17.3316C178.416 16.4996 177.36 16.0836 175.92 16.0836C174.16 16.0836 172.752 16.6436 171.696 17.7636C170.672 18.8516 170.16 20.3076 170.16 22.1316V32.6436C170.16 34.6916 169.152 35.7156 167.136 35.7156Z" fill="#1FAB81"/>
<path fill-rule="evenodd" clip-rule="evenodd" d="M196.702 43.9716C198.334 44.2916 200.014 44.4516 201.742 44.4516C205.582 44.4516 208.51 43.4916 210.526 41.5716C212.542 39.6516 213.55 36.7876 213.55 32.9796V14.4996C213.55 13.5076 213.294 12.7556 212.782 12.2436C212.27 11.7316 211.534 11.4756 210.574 11.4756C209.646 11.4756 208.91 11.7316 208.366 12.2436C207.854 12.7556 207.598 13.5076 207.598 14.4996V15.4783C207.063 14.4379 206.247 13.5676 205.15 12.8676C203.678 11.8756 201.95 11.3796 199.966 11.3796C198.398 11.3796 196.958 11.6676 195.646 12.2436C194.366 12.7876 193.262 13.5716 192.334 14.5956C191.438 15.6196 190.734 16.8516 190.222 18.2916C189.742 19.6996 189.502 21.2836 189.502 23.0436C189.502 25.3796 189.934 27.4276 190.798 29.1876C191.662 30.9476 192.878 32.3236 194.446 33.3156C196.014 34.2756 197.854 34.7556 199.966 34.7556C201.886 34.7556 203.598 34.2756 205.102 33.3156C206.273 32.5595 207.137 31.6174 207.694 30.4895V33.6996C207.694 35.7476 207.15 37.2836 206.062 38.3076C205.006 39.3636 203.406 39.8916 201.262 39.8916C200.366 39.8916 199.278 39.7796 197.998 39.5556C196.75 39.3636 195.422 38.9156 194.014 38.2116C193.534 37.9556 193.07 37.8916 192.622 38.0196C192.174 38.1476 191.79 38.3876 191.47 38.7396C191.182 39.0916 190.99 39.4916 190.894 39.9396C190.83 40.4196 190.894 40.8836 191.086 41.3316C191.31 41.7796 191.726 42.1636 192.334 42.4836C193.646 43.1556 195.102 43.6516 196.702 43.9716ZM204.814 29.3316C203.918 29.9076 202.846 30.1956 201.598 30.1956C199.742 30.1956 198.27 29.5556 197.182 28.2756C196.094 26.9956 195.55 25.2516 195.55 23.0436C195.55 21.5716 195.79 20.3076 196.27 19.2516C196.782 18.1956 197.486 17.3796 198.382 16.8036C199.278 16.2276 200.35 15.9396 201.598 15.9396C203.454 15.9396 204.926 16.5796 206.014 17.8596C207.102 19.1076 207.646 20.8356 207.646 23.0436C207.646 24.5156 207.39 25.7956 206.878 26.8836C206.398 27.9396 205.71 28.7556 204.814 29.3316Z" fill="#1FAB81"/>
<path fill-rule="evenodd" clip-rule="evenodd" d="M26.3496 1.65033C28.2371 0.468851 31.2473 -0.776772 34.4167 0.613692C36.909 1.70712 38.0028 3.73821 38.4171 5.74682C38.7301 7.2645 38.6972 9.02313 38.6705 10.4535L38.6704 10.4577C38.6692 10.5205 38.6681 10.5826 38.6669 10.6441V12.8596H43.7549C44.5229 12.8596 45.1149 13.0516 45.5309 13.4356C45.9469 13.8196 46.1549 14.3796 46.1549 15.1156C46.1549 15.8196 45.9469 16.3796 45.5309 16.7956C45.1149 17.1796 44.5229 17.3716 43.7549 17.3716H38.6669V27.2596C38.6669 28.7956 39.0029 29.9476 39.6749 30.7156C40.3469 31.4836 41.4349 31.8676 42.9389 31.8676C43.4829 31.8676 43.9629 31.8196 44.3789 31.7236C44.7949 31.6276 45.1629 31.5636 45.4829 31.5316C45.8669 31.4996 46.1869 31.6276 46.4429 31.9156C46.6989 32.1716 46.8269 32.7156 46.8269 33.5476C46.8269 34.1876 46.7149 34.7636 46.4909 35.2756C46.2989 35.7556 45.9309 36.0916 45.3869 36.2836C44.9709 36.4116 44.4269 36.5236 43.7549 36.6196C43.0829 36.7476 42.4909 36.8116 41.9789 36.8116C39.8989 36.8116 38.1549 36.4596 36.7469 35.7556C35.3709 35.0516 34.3469 34.0276 33.6749 32.6836C33.0029 31.3076 32.6669 29.6116 32.6669 27.5956V17.3716H30.1709C29.4029 17.3716 28.8109 17.1796 28.3949 16.7956C27.9789 16.3796 27.7709 15.8196 27.7709 15.1156C27.7709 14.3796 27.9789 13.8196 28.3949 13.4356C28.8109 13.0516 29.4029 12.8596 30.1709 12.8596H32.6669V11.2351C32.6617 11.1557 32.6595 11.0756 32.6605 10.9947C32.6626 10.8371 32.6648 10.6846 32.6669 10.5369V8.49155C32.6669 8.4028 32.669 8.31596 32.6731 8.23105C32.6562 7.7449 32.6178 7.33206 32.5408 6.95885C32.4599 6.56688 32.3636 6.39432 32.3139 6.32465C32.2834 6.28202 32.2228 6.20322 32.0061 6.10817C31.5827 5.92241 30.8343 5.92163 29.5331 6.73614C28.8751 7.14802 28.2597 7.65881 27.7331 8.14971C27.7192 8.50156 27.6588 8.8508 27.5527 9.18817L25.5208 15.5689C25.2017 16.5637 24.5034 17.3928 23.5772 17.8764L11.939 23.9474C9.98894 24.9636 7.57285 24.2131 6.53981 22.2703L2.19937 14.085C1.95374 13.6239 1.80197 13.1186 1.75285 12.5985C1.70373 12.0784 1.75824 11.5537 1.91321 11.0547C2.06818 10.5558 2.32055 10.0926 2.65571 9.69179C2.99087 9.29101 3.40218 8.96068 3.86583 8.7199L15.6775 2.55928L15.678 2.55738C16.6121 2.0716 17.6997 1.97251 18.7061 2.28148L23.6171 3.78381C24.3602 3.09003 25.2937 2.31128 26.3496 1.65033ZM22.3814 9.44093C22.3914 8.78515 21.8604 8.33156 21.4714 8.01161C21.4183 7.98826 21.3638 7.96782 21.3079 7.95047C20.9207 7.83021 20.5017 7.86778 20.1422 8.05501C19.965 8.14728 19.8078 8.27371 19.6798 8.42702C19.5517 8.58033 19.4553 8.75747 19.396 8.94823C19.3368 9.13899 19.3159 9.3396 19.3346 9.53847C19.3532 9.73735 19.4111 9.93057 19.5048 10.107C19.695 10.465 20.019 10.7333 20.4062 10.8536C20.7933 10.9739 21.2123 10.9363 21.5719 10.7491C22.0551 10.497 22.3448 10.0218 22.3814 9.51552V9.44093Z" fill="#0285E6"/>
<path d="M0.831073 14.8951C0.364536 15.4978 0.0812515 16.222 0.0150251 16.9812C-0.0512013 17.7405 0.102428 18.5028 0.457579 19.1771L3.0253 24.0587C3.51091 24.9819 4.17361 25.8005 4.97557 26.4676C5.77753 27.1347 6.70304 27.6374 7.69926 27.9468C8.69548 28.2562 9.74289 28.3664 10.7817 28.2711C11.8205 28.1757 12.8303 27.8766 13.7536 27.391L22.4081 22.8386C23.1073 22.4714 23.632 21.8416 23.867 21.0876L24.3264 19.6083L14.5782 24.7359C14.4067 24.8262 14.2332 24.9095 14.0601 24.9847L12.8292 25.6337C12.1368 25.998 11.3793 26.2224 10.6002 26.2939C9.82103 26.3655 9.03541 26.2828 8.28819 26.0508C7.54098 25.8187 6.84679 25.4416 6.24529 24.9412C5.64379 24.4408 5.14675 23.8269 4.78256 23.1343L4.13017 21.8941C4.03111 21.7339 3.93765 21.5703 3.84999 21.4036L1.28226 16.5221C1.0166 16.0185 0.862702 15.4636 0.831073 14.8951Z" fill="#0285E6"/>
<path fill-rule="evenodd" clip-rule="evenodd" d="M51.3768 35.8516C52.7208 36.4916 54.2408 36.8116 55.9368 36.8116C57.2168 36.8116 58.3528 36.5876 59.3448 36.1396C60.3368 35.6916 61.1528 35.0676 61.7928 34.2676C62.1918 33.7736 62.5118 33.2289 62.7528 32.6335V33.6436C62.7528 34.6356 62.9928 35.4036 63.4728 35.9476C63.9848 36.4596 64.6888 36.7156 65.5848 36.7156C66.4808 36.7156 67.1688 36.4596 67.6488 35.9476C68.1288 35.4036 68.3688 34.6356 68.3688 33.6436V22.1236C68.3688 19.8836 68.0008 18.0596 67.2648 16.6516C66.5288 15.2116 65.4088 14.1396 63.9048 13.4356C62.4328 12.7316 60.5448 12.3796 58.2408 12.3796C57.1208 12.3796 55.8728 12.5076 54.4968 12.7636C53.1528 13.0196 51.7448 13.4516 50.2728 14.0596C49.6648 14.2836 49.2328 14.6356 48.9768 15.1156C48.7208 15.5636 48.5928 16.0276 48.5928 16.5076C48.5928 16.9876 48.7208 17.4356 48.9768 17.8516C49.2328 18.2356 49.5848 18.4916 50.0328 18.6196C50.5128 18.7476 51.0568 18.6676 51.6648 18.3796C52.8488 17.8356 53.9688 17.4516 55.0248 17.2276C56.1128 17.0036 57.1208 16.8916 58.0488 16.8916C59.7128 16.8916 60.8968 17.2436 61.6008 17.9476C62.3048 18.6516 62.6568 19.8036 62.6568 21.4036V22.4116H60.9768C57.5848 22.4116 54.8808 22.6356 52.8648 23.0836C50.8488 23.5316 49.3928 24.2676 48.4968 25.2916C47.6008 26.2836 47.1528 27.6436 47.1528 29.3716C47.1528 30.7796 47.5208 32.0436 48.2568 33.1636C49.0248 34.2836 50.0648 35.1796 51.3768 35.8516ZM62.6568 25.8676V26.9236C62.6568 28.0436 62.4168 29.0356 61.9368 29.8996C61.4568 30.7636 60.8008 31.4516 59.9688 31.9636C59.1688 32.4436 58.2408 32.6836 57.1848 32.6836C55.8728 32.6836 54.8488 32.3476 54.1128 31.6756C53.3768 31.0036 53.0088 30.1396 53.0088 29.0836C53.0088 28.2516 53.2488 27.6116 53.7288 27.1636C54.2408 26.6836 55.0888 26.3476 56.2728 26.1556C57.4568 25.9636 59.0408 25.8676 61.0248 25.8676H62.6568Z" fill="#0285E6"/>
<path fill-rule="evenodd" clip-rule="evenodd" d="M78.9228 44.9716C80.5548 45.2916 82.2348 45.4516 83.9628 45.4516C87.8028 45.4516 90.7308 44.4916 92.7468 42.5716C94.7628 40.6516 95.7708 37.7876 95.7708 33.9796V15.4996C95.7708 14.5076 95.5148 13.7556 95.0028 13.2436C94.4908 12.7316 93.7548 12.4756 92.7948 12.4756C91.8668 12.4756 91.1308 12.7316 90.5868 13.2436C90.0748 13.7556 89.8188 14.5076 89.8188 15.4996V16.4783C89.2836 15.4379 88.4676 14.5676 87.3708 13.8676C85.8988 12.8756 84.1708 12.3796 82.1868 12.3796C80.6188 12.3796 79.1788 12.6676 77.8668 13.2436C76.5868 13.7876 75.4828 14.5716 74.5548 15.5956C73.6588 16.6196 72.9548 17.8516 72.4428 19.2916C71.9628 20.6996 71.7228 22.2836 71.7228 24.0436C71.7228 26.3796 72.1548 28.4276 73.0188 30.1876C73.8828 31.9476 75.0988 33.3236 76.6668 34.3156C78.2348 35.2756 80.0748 35.7556 82.1868 35.7556C84.1068 35.7556 85.8188 35.2756 87.3228 34.3156C88.4936 33.5595 89.3576 32.6174 89.9148 31.4895V34.6996C89.9148 36.7476 89.3708 38.2836 88.2828 39.3076C87.2268 40.3636 85.6268 40.8916 83.4828 40.8916C82.5868 40.8916 81.4988 40.7796 80.2188 40.5556C78.9708 40.3636 77.6428 39.9156 76.2348 39.2116C75.7548 38.9556 75.2908 38.8916 74.8428 39.0196C74.3948 39.1476 74.0108 39.3876 73.6908 39.7396C73.4028 40.0916 73.2108 40.4916 73.1148 40.9396C73.0508 41.4196 73.1148 41.8836 73.3068 42.3316C73.5308 42.7796 73.9468 43.1636 74.5548 43.4836C75.8668 44.1556 77.3228 44.6516 78.9228 44.9716ZM87.0348 30.3316C86.1388 30.9076 85.0668 31.1956 83.8188 31.1956C81.9628 31.1956 80.4908 30.5556 79.4028 29.2756C78.3148 27.9956 77.7708 26.2516 77.7708 24.0436C77.7708 22.5716 78.0108 21.3076 78.4908 20.2516C79.0028 19.1956 79.7068 18.3796 80.6028 17.8036C81.4988 17.2276 82.5708 16.9396 83.8188 16.9396C85.6748 16.9396 87.1468 17.5796 88.2348 18.8596C89.3228 20.1076 89.8668 21.8356 89.8668 24.0436C89.8668 25.5156 89.6108 26.7956 89.0988 27.8836C88.6188 28.9396 87.9308 29.7556 87.0348 30.3316Z" fill="#0285E6"/>
</svg>
