<svg width="20" height="21" viewBox="0 0 20 21" fill="none" xmlns="http://www.w3.org/2000/svg">
<path d="M15.5002 21.0002C14.9664 21.0064 14.4385 20.889 13.9576 20.6572C13.4768 20.4253 13.0561 20.0854 12.7285 19.6639C12.4008 19.2425 12.1752 18.7509 12.0692 18.2278C11.9631 17.7046 11.9796 17.164 12.1172 16.6482L5.85722 13.0702C5.32914 13.554 4.66515 13.8639 3.95514 13.9578C3.24513 14.0517 2.52341 13.9252 1.8877 13.5953C1.25199 13.2655 0.733006 12.7482 0.401012 12.1136C0.0690168 11.479 -0.0599461 10.7577 0.0315849 10.0474C0.123116 9.3371 0.430719 8.67206 0.912744 8.14236C1.39477 7.61266 2.02793 7.24388 2.72649 7.08596C3.42506 6.92803 4.15528 6.9886 4.81828 7.25944C5.48129 7.53029 6.04504 7.99834 6.43322 8.60021L12.1162 5.35121C12.0427 5.07339 12.0037 4.78757 12.0002 4.50021C11.9933 3.68844 12.2662 2.89907 12.7732 2.26501C13.2801 1.63095 13.99 1.19093 14.7834 1.01903C15.5768 0.847141 16.4052 0.953877 17.1291 1.32127C17.853 1.68866 18.4282 2.29427 18.7579 3.03613C19.0875 3.77798 19.1515 4.61077 18.939 5.39426C18.7265 6.17775 18.2505 6.86409 17.5912 7.33772C16.9319 7.81134 16.1295 8.04333 15.3192 7.9946C14.5088 7.94588 13.74 7.61943 13.1422 7.07021L6.99222 10.5852C6.98522 10.8452 6.94922 11.1022 6.88322 11.3532L13.1432 14.9302C13.5622 14.5457 14.0687 14.2692 14.6187 14.1248C15.1687 13.9804 15.7457 13.9724 16.2995 14.1014C16.8534 14.2305 17.3674 14.4927 17.7969 14.8654C18.2264 15.2381 18.5585 15.71 18.7643 16.2401C18.9702 16.7702 19.0436 17.3426 18.9781 17.9075C18.9127 18.4724 18.7104 19.0128 18.3888 19.4818C18.0671 19.9508 17.636 20.3342 17.1326 20.5988C16.6292 20.8634 16.0689 21.0012 15.5002 21.0002ZM15.5002 16.0002C15.1024 16.0002 14.7209 16.1582 14.4396 16.4396C14.1583 16.7209 14.0002 17.1024 14.0002 17.5002C14.0002 17.898 14.1583 18.2796 14.4396 18.5609C14.7209 18.8422 15.1024 19.0002 15.5002 19.0002C15.898 19.0002 16.2796 18.8422 16.5609 18.5609C16.8422 18.2796 17.0002 17.898 17.0002 17.5002C17.0002 17.1024 16.8422 16.7209 16.5609 16.4396C16.2796 16.1582 15.898 16.0002 15.5002 16.0002ZM3.50022 9.00021C3.10239 9.00021 2.72086 9.15825 2.43956 9.43955C2.15825 9.72086 2.00022 10.1024 2.00022 10.5002C2.00022 10.898 2.15825 11.2796 2.43956 11.5609C2.72086 11.8422 3.10239 12.0002 3.50022 12.0002C3.89804 12.0002 4.27957 11.8422 4.56088 11.5609C4.84218 11.2796 5.00022 10.898 5.00022 10.5002C5.00022 10.1024 4.84218 9.72086 4.56088 9.43955C4.27957 9.15825 3.89804 9.00021 3.50022 9.00021ZM15.5002 3.00021C15.3032 3.00021 15.1082 3.03901 14.9262 3.11439C14.7442 3.18977 14.5788 3.30026 14.4396 3.43955C14.3003 3.57884 14.1898 3.7442 14.1144 3.92619C14.039 4.10817 14.0002 4.30323 14.0002 4.50021C14.0002 4.69719 14.039 4.89225 14.1144 5.07424C14.1898 5.25622 14.3003 5.42158 14.4396 5.56087C14.5788 5.70016 14.7442 5.81065 14.9262 5.88603C15.1082 5.96141 15.3032 6.00021 15.5002 6.00021C15.898 6.00021 16.2796 5.84218 16.5609 5.56087C16.8422 5.27957 17.0002 4.89804 17.0002 4.50021C17.0002 4.10239 16.8422 3.72086 16.5609 3.43955C16.2796 3.15825 15.898 3.00021 15.5002 3.00021Z" fill="#016CBB"/>
</svg>
