<svg width="14" height="18" viewBox="0 0 14 18" fill="none" xmlns="http://www.w3.org/2000/svg">
<path d="M6.12516 9.58366L4.97933 8.41699C4.81266 8.25033 4.61489 8.16699 4.386 8.16699C4.15655 8.16699 3.9585 8.25033 3.79183 8.41699C3.62516 8.58366 3.5385 8.78144 3.53183 9.01033C3.52461 9.23977 3.60433 9.43783 3.771 9.60449L5.54183 11.3753C5.7085 11.542 5.90294 11.6253 6.12516 11.6253C6.34738 11.6253 6.54183 11.542 6.7085 11.3753L10.2502 7.83366C10.4168 7.66699 10.5002 7.46894 10.5002 7.23949C10.5002 7.0106 10.4168 6.81283 10.2502 6.64616C10.0835 6.47949 9.88572 6.39616 9.65683 6.39616C9.42739 6.39616 9.22933 6.47949 9.06266 6.64616L6.12516 9.58366ZM7.00016 17.2712H6.79183C6.72239 17.2712 6.65988 17.2573 6.60433 17.2295C4.78488 16.6601 3.28489 15.5314 2.10433 13.8437C0.923774 12.1564 0.333496 10.292 0.333496 8.25033V4.31283C0.333496 3.9656 0.434329 3.6531 0.635996 3.37533C0.837107 3.09755 1.09739 2.89616 1.41683 2.77116L6.41683 0.896159C6.61127 0.826714 6.80572 0.791992 7.00016 0.791992C7.19461 0.791992 7.38905 0.826714 7.5835 0.896159L12.5835 2.77116C12.9029 2.89616 13.1635 3.09755 13.3652 3.37533C13.5663 3.6531 13.6668 3.9656 13.6668 4.31283V8.25033C13.6668 10.292 13.0766 12.1564 11.896 13.8437C10.7154 15.5314 9.21544 16.6601 7.396 17.2295C7.32655 17.2573 7.19461 17.2712 7.00016 17.2712ZM7.00016 15.5837C8.44461 15.1253 9.63905 14.2087 10.5835 12.8337C11.5279 11.4587 12.0002 9.93088 12.0002 8.25033V4.31283L7.00016 2.43783L2.00016 4.31283V8.25033C2.00016 9.93088 2.47238 11.4587 3.41683 12.8337C4.36127 14.2087 5.55572 15.1253 7.00016 15.5837Z" fill="black"/>
</svg>
