<svg width="24" height="88" viewBox="0 0 24 88" fill="none" xmlns="http://www.w3.org/2000/svg">
<rect width="24" height="24" rx="4" fill="black" fill-opacity="0.25"/>
<path d="M12.0063 16.612C11.717 16.612 11.493 16.5327 11.3343 16.374C11.185 16.206 11.1103 15.9773 11.1103 15.688V8.128H8.38034C8.13768 8.128 7.94634 8.06267 7.80634 7.932C7.67568 7.792 7.61034 7.60533 7.61034 7.372C7.61034 7.12933 7.67568 6.94733 7.80634 6.826C7.94634 6.69533 8.13768 6.63 8.38034 6.63H15.6323C15.875 6.63 16.0617 6.69533 16.1923 6.826C16.3323 6.94733 16.4023 7.12933 16.4023 7.372C16.4023 7.60533 16.3323 7.792 16.1923 7.932C16.0617 8.06267 15.875 8.128 15.6323 8.128H12.9023V15.688C12.9023 15.9773 12.8277 16.206 12.6783 16.374C12.529 16.5327 12.305 16.612 12.0063 16.612Z" fill="white"/>
<rect y="32" width="24" height="24" rx="4" fill="black" fill-opacity="0.25"/>
<path d="M12.0001 37.2856C13.4778 37.2856 14.8949 37.8726 15.9397 38.9175C16.9846 39.9623 17.5716 41.3794 17.5716 42.8571C17.5716 45.2114 15.9173 47.7771 12.6516 50.5816C12.47 50.7376 12.2385 50.8233 11.9991 50.8231C11.7597 50.8229 11.5283 50.7368 11.347 50.5805L11.131 50.3931C8.00985 47.6616 6.42871 45.1588 6.42871 42.8571C6.42871 41.3794 7.0157 39.9623 8.06054 38.9175C9.10539 37.8726 10.5225 37.2856 12.0001 37.2856ZM12.0001 40.7142C11.4318 40.7142 10.8868 40.94 10.4849 41.3418C10.083 41.7437 9.85728 42.2888 9.85728 42.8571C9.85728 43.4254 10.083 43.9704 10.4849 44.3723C10.8868 44.7742 11.4318 44.9999 12.0001 44.9999C12.5685 44.9999 13.1135 44.7742 13.5154 44.3723C13.9172 43.9704 14.143 43.4254 14.143 42.8571C14.143 42.2888 13.9172 41.7437 13.5154 41.3418C13.1135 40.94 12.5685 40.7142 12.0001 40.7142Z" fill="white"/>
<rect y="64" width="24" height="24" rx="4" fill="black" fill-opacity="0.25"/>
<path d="M8.6665 81.3332L11.3332 70.6665L8.6665 81.3332ZM12.6665 81.3332L15.3332 70.6665L12.6665 81.3332ZM7.99984 73.9998H17.3332H7.99984ZM6.6665 77.9998H15.9998H6.6665Z" fill="white"/>
<path d="M8.6665 81.3332L11.3332 70.6665M12.6665 81.3332L15.3332 70.6665M7.99984 73.9998H17.3332M6.6665 77.9998H15.9998" stroke="white" stroke-width="1.8" stroke-linecap="round" stroke-linejoin="round"/>
</svg>
