<svg width="21" height="20" viewBox="0 0 21 20" fill="none" xmlns="http://www.w3.org/2000/svg">
<path d="M12.1888 1.00824L12.2484 0.977134C12.7656 0.727216 13.3589 0.681356 13.9096 0.850394L13.9103 0.850608L18.5921 2.28287L18.5944 2.28356C18.8806 2.3701 19.1467 2.51253 19.3774 2.70262C19.6082 2.89271 19.7989 3.12668 19.9386 3.39098C20.0783 3.65527 20.1642 3.94466 20.1913 4.24237C20.2183 4.53979 20.1862 4.83961 20.0967 5.12453C20.0966 5.12482 20.0965 5.12511 20.0965 5.12539L18.563 9.94097C18.563 9.94111 18.5629 9.94126 18.5629 9.94141C18.382 10.5047 17.9866 10.9742 17.4622 11.2481C17.4621 11.2481 17.462 11.2481 17.4619 11.2482L8.67154 15.8336C7.56415 16.4107 6.18934 15.9842 5.60211 14.88C5.60209 14.8799 5.60207 14.8799 5.60205 14.8799L2.3239 8.69782L2.32323 8.69656C2.18431 8.43578 2.09847 8.15004 2.07069 7.85587C2.04291 7.56171 2.07374 7.26495 2.16139 6.98277C2.24903 6.70059 2.39176 6.4386 2.58132 6.21194C2.77087 5.98528 3.00349 5.79845 3.26572 5.66227L3.26689 5.66166L12.1888 1.00824ZM10.9459 17.9585C10.9495 17.9569 10.953 17.9553 10.9566 17.9538L10.2379 18.3318L10.9459 17.9585ZM2.94874 16.2338L2.28516 16.5828L2.94874 16.2338ZM16.6407 7.19463L16.6413 7.19434C17.5738 6.70779 17.928 5.55889 17.4396 4.6303L17.4381 4.62752C17.2016 4.1824 16.7988 3.84876 16.3174 3.69924C15.836 3.54973 15.3151 3.59644 14.868 3.82922L14.8679 3.82927C14.6463 3.9447 14.4497 4.10287 14.2895 4.29465C14.1293 4.48643 14.0087 4.70803 13.9346 4.94667C13.8604 5.18532 13.8343 5.43627 13.8576 5.68506C13.881 5.93385 13.9534 6.17556 14.0706 6.39625L14.0706 6.39634C14.3072 6.84145 14.71 7.17509 15.1913 7.32461C15.6727 7.47413 16.1936 7.42741 16.6407 7.19463Z" stroke="#016CBB" stroke-width="1.5"/>
</svg>
