<svg width="360" height="80" viewBox="0 0 360 80" fill="none" xmlns="http://www.w3.org/2000/svg">
<rect x="16" y="37.5" width="62" height="29" rx="4" fill="black" fill-opacity="0.25"/>
<path d="M23.0501 47.0501C23.2376 46.8626 23.4919 46.7573 23.7571 46.7573C24.0223 46.7573 24.2766 46.8626 24.4641 47.0501L28.0001 50.5861L31.5361 47.0501C31.7247 46.868 31.9773 46.7672 32.2395 46.7694C32.5017 46.7717 32.7525 46.8769 32.9379 47.0623C33.1233 47.2477 33.2285 47.4985 33.2308 47.7607C33.2331 48.0229 33.1323 48.2755 32.9501 48.4641L29.4141 52.0001L32.9501 55.5361C33.1323 55.7247 33.2331 55.9773 33.2308 56.2395C33.2285 56.5017 33.1233 56.7525 32.9379 56.9379C32.7525 57.1233 32.5017 57.2285 32.2395 57.2308C31.9773 57.2331 31.7247 57.1323 31.5361 56.9501L28.0001 53.4141L24.4641 56.9501C24.2755 57.1323 24.0229 57.2331 23.7607 57.2308C23.4985 57.2285 23.2477 57.1233 23.0623 56.9379C22.8769 56.7525 22.7717 56.5017 22.7694 56.2395C22.7672 55.9773 22.868 55.7247 23.0501 55.5361L26.5861 52.0001L23.0501 48.4641C22.8626 48.2766 22.7573 48.0223 22.7573 47.7571C22.7573 47.4919 22.8626 47.2376 23.0501 47.0501Z" fill="white"/>
<path d="M44.326 56.64C43.6073 56.64 42.982 56.4953 42.45 56.206C41.918 55.9073 41.5073 55.4873 41.218 54.946C40.9286 54.4047 40.784 53.77 40.784 53.042C40.784 52.4913 40.8633 52.0013 41.022 51.572C41.19 51.1333 41.428 50.7647 41.736 50.466C42.044 50.158 42.4173 49.9247 42.856 49.766C43.2946 49.598 43.7846 49.514 44.326 49.514C44.634 49.514 44.9653 49.556 45.32 49.64C45.684 49.724 46.0246 49.864 46.342 50.06C46.4913 50.1533 46.5893 50.2653 46.636 50.396C46.6826 50.5267 46.692 50.662 46.664 50.802C46.636 50.9327 46.5753 51.0493 46.482 51.152C46.398 51.2453 46.2906 51.306 46.16 51.334C46.0293 51.3527 45.8846 51.32 45.726 51.236C45.5206 51.1147 45.3106 51.026 45.096 50.97C44.8813 50.9047 44.676 50.872 44.48 50.872C44.172 50.872 43.9013 50.9233 43.668 51.026C43.4346 51.1193 43.234 51.2593 43.066 51.446C42.9073 51.6233 42.786 51.8473 42.702 52.118C42.618 52.3887 42.576 52.7013 42.576 53.056C42.576 53.7467 42.7393 54.2927 43.066 54.694C43.402 55.086 43.8733 55.282 44.48 55.282C44.676 55.282 44.8766 55.254 45.082 55.198C45.2966 55.142 45.5113 55.0533 45.726 54.932C45.8846 54.848 46.0246 54.82 46.146 54.848C46.2766 54.876 46.384 54.9413 46.468 55.044C46.552 55.1373 46.6033 55.254 46.622 55.394C46.6406 55.5247 46.622 55.6553 46.566 55.786C46.5193 55.9167 46.426 56.024 46.286 56.108C45.978 56.2947 45.6513 56.43 45.306 56.514C44.9606 56.598 44.634 56.64 44.326 56.64ZM50.1035 56.64C49.3288 56.64 48.7455 56.4207 48.3535 55.982C47.9615 55.534 47.7655 54.8807 47.7655 54.022V47.4C47.7655 47.1107 47.8401 46.8913 47.9895 46.742C48.1388 46.5927 48.3535 46.518 48.6335 46.518C48.9135 46.518 49.1281 46.5927 49.2775 46.742C49.4361 46.8913 49.5155 47.1107 49.5155 47.4V53.938C49.5155 54.3673 49.6041 54.6847 49.7815 54.89C49.9681 55.0953 50.2295 55.198 50.5655 55.198C50.6401 55.198 50.7101 55.198 50.7755 55.198C50.8408 55.1887 50.9061 55.1793 50.9715 55.17C51.1021 55.1513 51.1908 55.1887 51.2375 55.282C51.2841 55.366 51.3075 55.5433 51.3075 55.814C51.3075 56.0473 51.2608 56.2293 51.1675 56.36C51.0741 56.4907 50.9201 56.57 50.7055 56.598C50.6121 56.6073 50.5141 56.6167 50.4115 56.626C50.3088 56.6353 50.2061 56.64 50.1035 56.64ZM55.2898 56.64C54.5805 56.64 53.9645 56.4953 53.4418 56.206C52.9191 55.9167 52.5131 55.506 52.2238 54.974C51.9345 54.4327 51.7898 53.798 51.7898 53.07C51.7898 52.5193 51.8691 52.0293 52.0278 51.6C52.1958 51.1613 52.4338 50.788 52.7418 50.48C53.0498 50.1627 53.4185 49.9247 53.8478 49.766C54.2771 49.598 54.7578 49.514 55.2898 49.514C55.9991 49.514 56.6151 49.6587 57.1378 49.948C57.6605 50.2373 58.0665 50.648 58.3558 51.18C58.6451 51.712 58.7898 52.342 58.7898 53.07C58.7898 53.6207 58.7058 54.1153 58.5378 54.554C58.3791 54.9927 58.1458 55.3707 57.8378 55.688C57.5298 55.996 57.1611 56.234 56.7318 56.402C56.3025 56.5607 55.8218 56.64 55.2898 56.64ZM55.2898 55.31C55.6351 55.31 55.9385 55.226 56.1998 55.058C56.4611 54.89 56.6618 54.6427 56.8018 54.316C56.9511 53.98 57.0258 53.5647 57.0258 53.07C57.0258 52.3233 56.8671 51.768 56.5498 51.404C56.2325 51.0307 55.8125 50.844 55.2898 50.844C54.9445 50.844 54.6411 50.928 54.3798 51.096C54.1185 51.2547 53.9131 51.502 53.7638 51.838C53.6238 52.1647 53.5538 52.5753 53.5538 53.07C53.5538 53.8073 53.7125 54.3673 54.0298 54.75C54.3471 55.1233 54.7671 55.31 55.2898 55.31ZM62.7402 56.64C62.3389 56.64 61.9142 56.598 61.4662 56.514C61.0182 56.43 60.6169 56.2853 60.2622 56.08C60.1129 55.9867 60.0056 55.8793 59.9402 55.758C59.8842 55.6273 59.8609 55.5013 59.8702 55.38C59.8889 55.2493 59.9356 55.1373 60.0102 55.044C60.0942 54.9507 60.1969 54.89 60.3182 54.862C60.4489 54.834 60.5889 54.8573 60.7382 54.932C61.1116 55.1093 61.4616 55.2353 61.7882 55.31C62.1149 55.3753 62.4369 55.408 62.7542 55.408C63.2022 55.408 63.5336 55.3333 63.7482 55.184C63.9722 55.0253 64.0842 54.82 64.0842 54.568C64.0842 54.3533 64.0096 54.19 63.8602 54.078C63.7202 53.9567 63.5056 53.868 63.2162 53.812L61.8162 53.546C61.2376 53.434 60.7942 53.224 60.4862 52.916C60.1876 52.5987 60.0382 52.1927 60.0382 51.698C60.0382 51.25 60.1596 50.8627 60.4022 50.536C60.6542 50.2093 60.9996 49.9573 61.4382 49.78C61.8769 49.6027 62.3809 49.514 62.9502 49.514C63.3609 49.514 63.7436 49.5607 64.0982 49.654C64.4622 49.738 64.8122 49.8733 65.1482 50.06C65.2882 50.1347 65.3816 50.2327 65.4282 50.354C65.4842 50.4753 65.4982 50.6013 65.4702 50.732C65.4422 50.8533 65.3862 50.9653 65.3022 51.068C65.2182 51.1613 65.1109 51.222 64.9802 51.25C64.8589 51.2687 64.7189 51.2407 64.5602 51.166C64.2709 51.0167 63.9909 50.9093 63.7202 50.844C63.4589 50.7787 63.2069 50.746 62.9642 50.746C62.5069 50.746 62.1662 50.8253 61.9422 50.984C61.7276 51.1427 61.6202 51.3527 61.6202 51.614C61.6202 51.81 61.6856 51.9733 61.8162 52.104C61.9469 52.2347 62.1476 52.3233 62.4182 52.37L63.8182 52.636C64.4249 52.748 64.8822 52.9533 65.1902 53.252C65.5076 53.5507 65.6662 53.952 65.6662 54.456C65.6662 55.1373 65.4002 55.674 64.8682 56.066C64.3362 56.4487 63.6269 56.64 62.7402 56.64ZM70.4442 56.64C69.6695 56.64 69.0022 56.4953 68.4422 56.206C67.8822 55.9167 67.4482 55.506 67.1402 54.974C66.8415 54.442 66.6922 53.812 66.6922 53.084C66.6922 52.3747 66.8368 51.754 67.1262 51.222C67.4248 50.69 67.8308 50.2747 68.3442 49.976C68.8668 49.668 69.4595 49.514 70.1222 49.514C70.6075 49.514 71.0415 49.5933 71.4242 49.752C71.8162 49.9107 72.1475 50.1393 72.4182 50.438C72.6982 50.7367 72.9082 51.1007 73.0482 51.53C73.1975 51.95 73.2722 52.426 73.2722 52.958C73.2722 53.126 73.2115 53.2567 73.0902 53.35C72.9782 53.434 72.8148 53.476 72.6002 53.476H68.1062V52.468H72.0402L71.8162 52.678C71.8162 52.2487 71.7508 51.8893 71.6202 51.6C71.4988 51.3107 71.3168 51.0913 71.0742 50.942C70.8408 50.7833 70.5468 50.704 70.1922 50.704C69.8002 50.704 69.4642 50.7973 69.1842 50.984C68.9135 51.1613 68.7035 51.418 68.5542 51.754C68.4142 52.0807 68.3442 52.4727 68.3442 52.93V53.028C68.3442 53.7933 68.5215 54.3673 68.8762 54.75C69.2402 55.1233 69.7722 55.31 70.4722 55.31C70.7148 55.31 70.9855 55.282 71.2842 55.226C71.5922 55.1607 71.8815 55.0533 72.1522 54.904C72.3482 54.792 72.5208 54.7453 72.6702 54.764C72.8195 54.7733 72.9362 54.8247 73.0202 54.918C73.1135 55.0113 73.1695 55.128 73.1882 55.268C73.2068 55.3987 73.1788 55.534 73.1042 55.674C73.0388 55.814 72.9222 55.9353 72.7542 56.038C72.4275 56.2433 72.0495 56.3973 71.6202 56.5C71.2002 56.5933 70.8082 56.64 70.4442 56.64Z" fill="white"/>
<path opacity="0.3" fill-rule="evenodd" clip-rule="evenodd" d="M317 7H307V17H317V7ZM325 12C325 9.23858 327.239 7 330 7C332.761 7 335 9.23858 335 12C335 14.7614 332.761 17 330 17C327.239 17 325 14.7614 325 12ZM347 17L353 7H341L347 17Z" fill="#333333"/>
</svg>
