<svg width="25" height="20" viewBox="0 0 25 20" fill="none" xmlns="http://www.w3.org/2000/svg">
<path d="M21.9754 5.07963C21.99 5.29054 21.99 5.50146 21.99 5.71432C21.99 12.2002 17.0525 19.6804 8.02393 19.6804V19.6765C5.35688 19.6804 2.74522 18.9164 0.5 17.476C0.887812 17.5226 1.27757 17.546 1.66829 17.5469C3.87853 17.5489 6.02559 16.8073 7.76442 15.4417C5.66402 15.4018 3.82216 14.0323 3.17872 12.033C3.91449 12.1749 4.67262 12.1458 5.39478 11.9485C3.10485 11.4858 1.45738 9.47385 1.45738 7.13726C1.45738 7.11588 1.45738 7.09547 1.45738 7.07506C2.13969 7.4551 2.90365 7.66601 3.68511 7.68934C1.52833 6.24792 0.863513 3.3787 2.16594 1.13542C4.65804 4.20195 8.33496 6.06617 12.2821 6.26347C11.8865 4.55866 12.4269 2.7722 13.7021 1.57377C15.6791 -0.284612 18.7884 -0.18936 20.6468 1.78663C21.746 1.56988 22.7997 1.16652 23.7638 0.59501C23.3974 1.73123 22.6305 2.69639 21.6061 3.30969C22.579 3.195 23.5296 2.93451 24.4248 2.53698C23.7658 3.52449 22.9357 4.38468 21.9754 5.07963Z" fill="#1D9BF0"/>
</svg>
