<svg width="18" height="18" viewBox="0 0 18 18" fill="none" xmlns="http://www.w3.org/2000/svg">
<path d="M9.00012 0.666992C7.38385 0.670063 5.80336 1.14308 4.45115 2.02844C3.09893 2.9138 2.03337 4.17328 1.38424 5.65347C0.735111 7.13366 0.530436 8.77067 0.795144 10.3651C1.05985 11.9596 1.78252 13.4426 2.87512 14.6337C3.65547 15.4795 4.60257 16.1546 5.65674 16.6163C6.7109 17.0781 7.84927 17.3164 9.00012 17.3164C10.151 17.3164 11.2893 17.0781 12.3435 16.6163C13.3977 16.1546 14.3448 15.4795 15.1251 14.6337C16.2177 13.4426 16.9404 11.9596 17.2051 10.3651C17.4698 8.77067 17.2651 7.13366 16.616 5.65347C15.9669 4.17328 14.9013 2.9138 13.5491 2.02844C12.1969 1.14308 10.6164 0.670063 9.00012 0.666992ZM9.00012 15.667C7.27384 15.6644 5.61588 14.9922 4.37512 13.792C4.75183 12.8749 5.39265 12.0906 6.21617 11.5386C7.03968 10.9866 8.00871 10.6918 9.00012 10.6918C9.99153 10.6918 10.9606 10.9866 11.7841 11.5386C12.6076 12.0906 13.2484 12.8749 13.6251 13.792C12.3844 14.9922 10.7264 15.6644 9.00012 15.667ZM7.33346 7.33366C7.33346 7.00402 7.4312 6.68179 7.61434 6.40771C7.79748 6.13363 8.05777 5.92001 8.36232 5.79386C8.66686 5.66771 9.00197 5.63471 9.32527 5.69902C9.64857 5.76333 9.94555 5.92206 10.1786 6.15515C10.4117 6.38824 10.5705 6.68521 10.6348 7.00851C10.6991 7.33181 10.6661 7.66692 10.5399 7.97146C10.4138 8.27601 10.2002 8.53631 9.92607 8.71944C9.65199 8.90258 9.32976 9.00033 9.00012 9.00033C8.55809 9.00033 8.13417 8.82473 7.82161 8.51217C7.50905 8.19961 7.33346 7.77569 7.33346 7.33366ZM14.7585 12.3337C14.0139 11.0601 12.868 10.0695 11.5001 9.51699C11.9244 9.03587 12.2009 8.44254 12.2963 7.80819C12.3918 7.17384 12.3022 6.52542 12.0382 5.94074C11.7743 5.35606 11.3473 4.85996 10.8084 4.51196C10.2695 4.16397 9.64161 3.97887 9.00012 3.97887C8.35863 3.97887 7.73076 4.16397 7.19187 4.51196C6.65297 4.85996 6.22593 5.35606 5.962 5.94074C5.69806 6.52542 5.60844 7.17384 5.7039 7.80819C5.79935 8.44254 6.07582 9.03587 6.50012 9.51699C5.13229 10.0695 3.98635 11.0601 3.24179 12.3337C2.64841 11.3229 2.33489 10.1724 2.33346 9.00033C2.33346 7.23222 3.03583 5.53652 4.28608 4.28628C5.53632 3.03604 7.23201 2.33366 9.00012 2.33366C10.7682 2.33366 12.4639 3.03604 13.7142 4.28628C14.9644 5.53652 15.6668 7.23222 15.6668 9.00033C15.6654 10.1724 15.3518 11.3229 14.7585 12.3337Z" fill="black"/>
</svg>
