<svg width="19" height="21" viewBox="0 0 19 21" fill="none" xmlns="http://www.w3.org/2000/svg">
<path d="M18.2701 13.21L16.4701 11.4V6.94002C16.494 5.28384 15.9179 3.67493 14.8482 2.41035C13.7785 1.14578 12.2873 0.310951 10.6501 0.0600163C9.69989 -0.0651165 8.73394 0.0138312 7.81668 0.291592C6.89942 0.569352 6.05194 1.03954 5.3308 1.67078C4.60965 2.30202 4.03142 3.07979 3.63468 3.95221C3.23794 4.82463 3.03182 5.77163 3.03007 6.73002V11.4L1.23007 13.21C1.00398 13.4399 0.850657 13.7313 0.789273 14.0478C0.72789 14.3643 0.761169 14.6919 0.884951 14.9897C1.00873 15.2874 1.21752 15.542 1.48522 15.7217C1.75292 15.9014 2.06766 15.9982 2.39007 16H5.75007V16.34C5.79678 17.3552 6.24403 18.3105 6.9938 18.9965C7.74357 19.6826 8.73473 20.0434 9.75007 20C10.7654 20.0434 11.7566 19.6826 12.5063 18.9965C13.2561 18.3105 13.7034 17.3552 13.7501 16.34V16H17.1101C17.4325 15.9982 17.7472 15.9014 18.0149 15.7217C18.2826 15.542 18.4914 15.2874 18.6152 14.9897C18.739 14.6919 18.7723 14.3643 18.7109 14.0478C18.6495 13.7313 18.4962 13.4399 18.2701 13.21ZM11.7501 16.34C11.6946 16.821 11.4557 17.2621 11.0831 17.5713C10.7106 17.8805 10.2331 18.0341 9.75007 18C9.26709 18.0341 8.78957 17.8805 8.417 17.5713C8.04443 17.2621 7.80553 16.821 7.75007 16.34V16H11.7501V16.34ZM3.26007 14L4.44007 12.82C4.62724 12.634 4.77574 12.4127 4.877 12.169C4.97826 11.9253 5.03028 11.6639 5.03007 11.4V6.73002C5.03062 6.05542 5.17546 5.38874 5.45487 4.77473C5.73428 4.16071 6.1418 3.61357 6.65007 3.17002C7.15149 2.7157 7.74565 2.37577 8.39141 2.17375C9.03718 1.97173 9.71914 1.91245 10.3901 2.00002C11.5466 2.18779 12.5963 2.78703 13.346 3.6874C14.0957 4.58776 14.4949 5.72865 14.4701 6.90002V11.4C14.4686 11.6632 14.519 11.9242 14.6185 12.1678C14.7181 12.4115 14.8647 12.6331 15.0501 12.82L16.2401 14H3.26007Z" fill="#A8A8A8"/>
</svg>
